<?xml version="1.0" encoding="utf-8"?>
<svg version="1.1" id="svg1" width="379.44965" height="484.16388" viewBox="0 0 379.44964 484.16388" xmlns="http://www.w3.org/2000/svg">
  <g id="g1" transform="translate(-0.07187095,-0.19410284)">
    <path id="path23" style="fill:#000000" d="m 178.8417,386.57737 c -9.66451,-0.2823 -11.16795,-0.41667 -18.90348,-1.68945 C 129.53977,379.88624 101.90486,368.05271 76.526601,349.17028 69.312757,343.8029 64.321135,339.42258 56.7016,331.77319 30.279796,305.24784 12.823243,273.21245 4.2693409,235.55213 3.5747875,232.49421 2.7420996,228.45053 2.4189234,226.56617 0.08341024,212.94836 -0.68510711,184.28716 0.92059425,170.68726 4.8433589,137.4624 18.998055,102.0989 39.233471,74.967989 47.673959,63.651287 62.824604,48.14332 73.781602,39.605053 75.910601,37.946026 80.738224,34.547165 84.509653,32.052028 112.26724,13.687914 137.81973,4.3226122 169.57529,0.87443061 c 8.35506,-0.907235 28.58234,-0.90707287 37.62162,3.0155e-4 23.28263,2.33713894 46.41005,9.09557204 66.34543,19.38785484 12.6795,6.546203 18.44831,10.10111 27.77903,17.118231 23.7239,17.84144 45.06727,43.03535 57.47252,67.841082 6.67656,13.35057 12.61299,29.29246 15.9107,42.72716 3.90471,15.90761 5.59967,37.08034 4.47597,55.91195 -1.05875,17.743 -3.40723,30.69215 -8.53731,47.07336 -3.15362,10.07002 -5.25284,15.21649 -10.53492,25.82745 -6.54616,13.15033 -11.44421,21.17035 -19.27679,31.56364 -20.93161,27.77478 -43.16326,46.54469 -71.36436,60.25206 -21.97579,10.6815 -47.32133,17.27776 -68.57143,17.84593 -3.77143,0.10083 -8.3583,0.23275 -10.19305,0.29314 -1.83475,0.0604 -7.1722,-0.002 -11.861,-0.13922 z m -56.22447,-28.37166 c 2.36022,-0.52936 6.46894,-1.70719 9.13048,-2.61741 5.73158,-1.96014 18.34014,-8.09578 22.8818,-11.13487 6.311,-4.22305 19.07601,-14.75111 27.45519,-22.64393 1.88617,-1.77669 3.79428,-3.53878 4.24024,-3.91576 0.80918,-0.68403 0.82172,-0.67532 6.14234,4.26254 6.78268,6.29476 15.82958,13.98751 21.01174,17.86666 12.68324,9.49417 27.74961,16.32796 40.97658,18.58611 10.25201,1.75026 19.06732,-2.21633 22.97331,-10.33722 2.34177,-4.86875 2.11223,-9.34205 -0.70424,-13.72409 -2.53875,-3.94994 -6.01689,-6.4123 -17.07988,-12.09172 -9.85756,-5.0606 -17.19929,-9.14469 -22.61004,-12.57762 -4.23368,-2.68612 -16.26531,-11.25911 -22.59581,-16.10036 -1.62306,-1.24124 -3.19399,-2.44188 -3.49095,-2.6681 -0.46435,-0.35372 -0.42507,-0.59715 0.28057,-1.73889 1.07025,-1.73171 7.11773,-7.47092 13.31937,-12.64042 4.74723,-3.95715 13.18413,-10.22869 13.76032,-10.22869 0.15308,0 3.01488,1.91642 6.35955,4.25871 3.4837,2.43964 6.44872,4.26035 6.94157,4.26255 0.59924,0.003 1.89284,-1.04961 4.26255,-3.4674 8.808,-8.98669 18.75541,-17.18201 31.4638,-25.92192 14.7405,-10.13746 41.49928,-25.30612 64.23185,-36.41088 5.91197,-2.88797 11.29112,-5.70768 11.95367,-6.26602 0.75159,-0.63337 1.20463,-1.35473 1.20463,-1.9181 0,-2.27727 -7.24682,-14.38475 -22.16005,-37.02343 -7.96583,-12.09235 -8.65824,-13.1122 -9.21748,-13.57632 -0.34836,-0.28912 -1.44659,0.19795 -4.20894,1.86669 -2.05567,1.24184 -3.87725,2.25789 -4.04794,2.25789 -0.49963,0 -14.00339,9.85261 -17.44667,12.72943 -7.6012,6.35071 -20.78399,20.16236 -27.47353,28.78408 -3.46688,4.46825 -13.72922,19.6083 -18.91863,27.9107 -2.41971,3.87122 -5.18048,8.14025 -6.13506,9.48673 -2.65613,3.74661 -9.2527,10.11714 -16.22954,15.67345 -7.98607,6.36004 -8.1016,6.48661 -8.33759,9.13427 l -0.18751,2.10374 -3.15057,0.0303 c -5.85869,0.0564 -7.00054,1.64129 -3.6982,5.13303 l 1.86164,1.96841 -1.21299,0.24742 c -0.66715,0.13608 -2.51281,0.34975 -4.10146,0.47483 l -2.88845,0.2274 -2.11541,2.78927 c -2.60677,3.43715 -4.34018,4.85639 -6.64241,5.43851 l -1.77415,0.44859 -0.18533,2.37013 c -0.1745,2.23162 -0.23948,2.37014 -1.11197,2.37014 -1.06701,0 -1.05787,0.069 -0.43537,-3.28662 0.2597,-1.39992 0.38152,-2.63596 0.27072,-2.74676 -0.40057,-0.40057 -1.63765,1.1215 -1.99142,2.45017 -0.25432,0.9552 -0.3733,1.10789 -0.40022,0.51366 -0.0702,-1.5501 -1.05278,-1.31317 -4.38049,1.05626 -5.29193,3.76804 -6.37212,4.95557 -5.68146,6.24609 0.50072,0.9356 6.12481,5.3511 20.54662,16.13126 18.50904,13.83532 23.77439,17.23227 38.91897,25.10863 9.211,4.79044 13.25872,7.36453 15.29547,9.72693 2.14081,2.4831 2.44328,3.33425 2.28671,6.43477 -0.13607,2.6946 -0.18234,2.81259 -1.57495,4.0164 -4.35394,3.76369 -13.04297,4.08983 -22.3696,0.83962 -6.96747,-2.42807 -18.73575,-8.85639 -26.20262,-14.31295 -5.18549,-3.78941 -15.53754,-12.66403 -24.08497,-20.64763 -4.2702,-3.98851 -7.92172,-7.25184 -8.11448,-7.25184 -0.4923,0 -3.26909,2.41889 -10.68938,9.31164 -16.67452,15.48906 -26.15937,22.55395 -38.29701,28.5259 -18.90124,9.29979 -33.33748,9.19351 -33.25267,-0.2448 0.0492,-5.47606 4.98743,-10.08511 17.61165,-16.43765 9.45861,-4.7596 19.58017,-10.88564 27.41309,-16.59168 7.45072,-5.42762 21.52744,-16.13861 27.84448,-21.1869 l 4.40418,-3.51963 -2.18025,-1.98679 c -1.19913,-1.09274 -3.05616,-2.66879 -4.12673,-3.50234 -2.16841,-1.68834 -2.15178,-1.69125 -4.33001,0.75636 l -1.11722,1.25539 -1.56461,-1.77806 c -0.86054,-0.97793 -1.75579,-2.29343 -1.98945,-2.92334 -0.23366,-0.62991 -0.56792,-1.50975 -0.74279,-1.95521 -0.17488,-0.44546 -1.61913,-1.67799 -3.20945,-2.73896 -1.59032,-1.06098 -3.80886,-2.71211 -4.9301,-3.66919 -2.9814,-2.5449 -4.87015,-3.6978 -7.27899,-4.4431 -1.17793,-0.36446 -2.20394,-0.84939 -2.28001,-1.07761 -0.22901,-0.68703 1.6549,-1.1601 4.67193,-1.17316 l 2.84846,-0.0123 -0.92664,-0.78299 c -2.06011,-1.74073 -4.69555,-2.61039 -7.77427,-2.56542 l -2.9007,0.0424 -2.90962,-2.50892 C 133.88747,250.20151 122.7276,241.58934 109.89961,232.39933 83.332673,213.3667 73.705835,206.54358 70.610039,204.55242 67.649651,202.64836 57.49996,195.38358 43.737452,185.31802 30.230125,175.43908 11.831666,163.08881 10.622147,163.08881 c -0.519145,0 -0.02156,4.86916 0.852256,8.33976 1.787596,7.09996 13.879987,28.36789 21.700259,38.16612 4.130019,5.17461 10.247654,11.75098 21.865105,23.5047 13.588082,13.74747 22.191073,21.93889 27.245947,25.94249 1.93668,1.5339 6.106564,4.97563 9.26641,7.64828 3.159845,2.67266 9.081076,7.59845 13.158296,10.94622 4.07722,3.34776 8.79872,7.31538 10.49222,8.81694 4.26303,3.77986 5.75669,4.08311 9.89389,2.00875 4.06574,-2.03854 9.86356,-7.58229 14.72915,-14.08369 1.54023,-2.05806 2.82718,-3.42857 3.21952,-3.42857 1.75562,0 10.69194,7.29521 17.13442,13.98777 2.17138,2.25566 4.06287,4.46322 4.2033,4.90568 0.3459,1.08985 -0.24502,1.67911 -5.55008,5.53433 -17.5919,12.78417 -31.00026,21.11707 -41.45666,25.76408 -3.99179,1.77402 -11.01662,5.64786 -14.52735,8.0111 -4.496654,3.02689 -6.857168,6.39737 -7.567693,10.80556 -1.025594,6.36293 3.286412,13.35377 10.447053,16.93729 5.85175,2.92849 8.69109,3.14874 16.88904,1.31009 z m -4.25559,-80.54229 C 113.85219,274.14976 92.565639,256.60435 87.104247,251.89955 70.795317,237.84999 56.266722,223.7656 46.535763,212.57143 41.490825,206.7679 27.73036,187.86602 28.206174,187.39323 c 0.08197,-0.0814 4.546989,4.08945 9.922263,9.26867 18.461737,17.78836 43.668618,39.59823 64.317773,55.64997 15.61434,12.1379 18.76087,14.07202 24.64422,15.14839 3.57466,0.65399 4.61621,1.21848 4.23579,2.29565 -0.70666,2.00091 -7.9146,10.83097 -8.84127,10.83097 -0.20423,0 -2.05972,-1.31556 -4.12331,-2.92346 z M 308.9654,216.05146 c 3.2196,-3.41044 25.12088,-17.64108 33.33576,-21.66034 4.67318,-2.28642 5.43095,-2.39171 6.86839,-0.95427 1.73594,1.73594 1.40855,2.50708 -1.49387,3.51875 -3.12636,1.08972 -15.00368,7.23801 -25.67907,13.29275 -8.15519,4.62537 -12.73632,6.95629 -13.67172,6.95629 -0.24648,0 0.0418,-0.51893 0.64051,-1.15318 z m -13.06615,-2.93679 c 0.29049,-0.41473 1.97313,-2.40084 3.7392,-4.41357 7.83065,-8.92437 19.04992,-18.41687 28.70916,-24.29051 4.11098,-2.49983 10.65522,-5.75422 11.57114,-5.75422 0.59661,0 2.57517,1.95408 2.56206,2.53037 -0.0141,0.62097 -0.80778,1.17295 -4.52137,3.14456 -5.27341,2.79973 -9.70213,5.505 -16.36919,9.99905 -5.27263,3.5541 -8.73274,6.14595 -20.54475,15.38935 -2.9161,2.28197 -5.38579,4.14903 -5.4882,4.14903 -0.10242,0 0.0515,-0.33933 0.34195,-0.75406 z m -9.43061,-5.36177 c 2.47009,-4.67725 10.24082,-14.13978 17.99727,-21.91554 9.27894,-9.30204 17.36205,-15.42619 25.97565,-19.68037 2.79213,-1.37901 2.84333,-1.389 3.37889,-0.65892 0.90712,1.23661 1.02772,2.37549 0.33286,3.1433 -0.64787,0.71588 -3.94556,2.9039 -9.24467,6.13381 -6.08506,3.70897 -15.08589,11.46383 -28.38139,24.45262 -5.0082,4.89267 -9.58445,9.31274 -10.16945,9.8224 l -1.06363,0.92664 z M 126.64769,343.94443 c 2.4584,-0.93147 3.55051,-3.17792 2.73953,-5.63519 -1.09072,-3.30492 -4.79436,-4.57651 -7.9475,-2.72865 -2.14845,1.25908 -3.35797,3.16952 -3.04908,4.81605 0.24808,1.32237 1.70952,2.94124 3.18465,3.52773 1.24636,0.49553 3.79093,0.50559 5.0724,0.0201 z m 126.86695,-0.15323 c 3.58808,-1.85547 3.37901,-6.20326 -0.40044,-8.32743 -3.58334,-2.01395 -7.47011,0.13219 -7.47011,4.12473 0,3.57962 4.46495,5.9638 7.87055,4.2027 z M 187.3668,268.5844 c 0.40772,-0.0241 2.57606,0.0879 4.81853,0.24901 3.24082,0.23279 4.52552,0.17384 6.26259,-0.28737 4.90181,-1.30148 9.42065,-4.40575 18.2458,-12.53416 2.50506,-2.3073 4.34875,-3.71381 5.0527,-3.8546 0.72634,-0.14526 1.35601,-0.64136 1.82677,-1.43923 0.39511,-0.66966 1.5352,-1.74171 2.53353,-2.38234 2.46667,-1.58286 6.11633,-5.5598 6.68582,-7.28536 0.35169,-1.06563 0.41583,-4.09517 0.26151,-12.35085 -0.11247,-6.01638 -0.0902,-11.35587 0.0494,-11.86552 0.19175,-0.69989 0.53951,-0.95465 1.42113,-1.04109 1.6016,-0.15703 2.29301,1.00347 2.76421,4.63962 0.20583,1.58837 0.59371,3.11773 0.86194,3.39856 0.775,0.81141 2.6182,0.25406 7.90947,-2.39166 6.03036,-3.01528 8.07841,-4.78285 9.96481,-8.6001 1.30161,-2.63389 1.39327,-3.03858 1.35767,-5.99411 -0.0567,-4.70861 -0.81315,-6.39934 -6.30995,-14.10388 l -1.71889,-2.40927 2.35617,-2.03861 c 7.57645,-6.55533 8.98362,-9.48133 9.00194,-18.71815 0.0102,-5.13471 -0.41722,-7.87086 -1.3478,-8.62842 -0.31775,-0.25866 -1.66809,-0.10105 -4.35256,0.50803 -5.39771,1.22469 -13.94007,2.61653 -20.75675,3.38196 -8.07425,0.90665 -35.61699,0.90302 -48.55599,-0.006 -19.36834,-1.3613 -27.49873,-2.45703 -47.62934,-6.41897 -16.5716,-3.26149 -18.2851,-3.48565 -19.11752,-2.50088 -2.37562,2.81039 -2.73763,17.46585 -0.5495,22.24537 1.59719,3.48871 4.02572,6.51643 7.12877,8.88762 1.59413,1.21816 2.94604,2.4621 3.00424,2.76433 0.0582,0.30223 -1.08146,2.12836 -2.53259,4.05805 -4.31363,5.73621 -5.25717,8.25635 -5.25717,14.04153 0,5.10413 1.74057,8.06656 6.76006,11.50554 3.80196,2.60481 10.43401,5.30159 11.46735,4.66295 0.18791,-0.11614 0.54291,-1.45876 0.78889,-2.98361 0.24599,-1.52485 0.66526,-3.0651 0.93172,-3.42277 0.44052,-0.5913 0.5756,-0.59986 1.48869,-0.0943 0.55232,0.3058 1.35402,1.02762 1.78155,1.60406 0.75561,1.01881 0.77374,1.35525 0.64905,12.04634 l -0.12828,10.99825 0.86959,0.81022 c 0.47827,0.44562 1.56536,1.2796 2.41574,1.85328 0.85039,0.57369 2.53253,2.29403 3.73809,3.82299 1.20556,1.52896 3.48923,4.19058 5.07482,5.91471 1.58559,1.72413 3.14104,3.52878 3.45656,4.01032 1.38612,2.11549 13.98095,9.35636 17.50484,10.06368 1.39828,0.28066 3.5664,0.25534 9.8224,-0.11474 z m -10.93437,-20.28479 c -3.12865,-1.56406 -8.44621,-2.28702 -13.15267,-4.63871 -4.88263,-2.43971 -6.4966,-3.61935 -5.84435,-4.27159 0.91154,-0.91155 3.55257,0.81533 9.39512,2.84534 7.92452,3.29489 13.84692,2.91884 23.34871,1.88303 6.63843,-0.72367 12.6567,-1.90547 18.23993,-4.83944 7.22971,-3.79918 7.47093,-3.88977 8.60054,-2.99123 0.84233,0.67002 -5.73017,6.77312 -10.82217,8.85647 -5.4157,2.2158 -2.22867,6.12467 -14.23044,7.19054 -3.1397,0.27883 -8.0122,-0.27381 -15.53467,-4.03441 z m 14.90413,-23.49811 c -2.07562,-2.9447 -3.50832,-3.06512 -6.65535,-0.55942 -1.14167,0.90901 -2.09883,1.40636 -2.44838,1.27223 -0.31566,-0.12113 -1.35187,-1.16469 -2.30269,-2.31901 l -1.72876,-2.09877 0.24311,-2.68903 c 0.71317,-7.8883 4.06668,-14.84279 8.43967,-17.50216 1.03584,-0.62993 1.27064,-0.64995 2.16978,-0.18499 1.75619,0.90816 5.10114,4.95224 5.93127,7.17097 1.17089,3.12948 2.5188,7.97288 2.792,10.03242 0.20822,1.56965 0.10532,2.07509 -0.699,3.43334 -0.51874,0.876 -1.75646,2.38725 -2.75049,3.35834 l -1.80733,1.7656 z m 23.9886,-15.51681 c -5.61505,-1.51398 -10.54205,-7.33931 -12.59923,-14.89639 -1.24467,-4.57233 1.13532,-7.05473 -4.09705,-9.63079 -4.33725,-2.13537 -7.60126,-2.02521 -10.03269,-2.02521 -3.18017,0 -3.71107,2.52564 -9.93982,8.34099 -5.59651,5.22507 -10.36731,8.92257 -13.34363,10.34168 l -2.40926,1.14874 c -8.95395,4.07983 -2.85568,-1.13482 -2.85568,-1.13482 -5.69806,2.15508 5.0693,-2.98952 6.46304,-5.28348 l 1.73042,-2.84811 -8.28785,1.92117 c -9.87563,2.28922 -14.69501,-2.15681 -15.76111,-6.35014 0,0 -1.72125,-3.44078 -1.53095,-6.02173 0.1949,-2.64333 7.02532,-2.5377 7.02532,-2.5377 7.62794,3.30983 6.4038,3.55715 17.03905,4.27293 l 6.92679,0.46619 2.46312,-1.91294 c 3.19289,-2.4797 5.87764,-3.44256 10.1392,-3.63633 3.63679,-0.16536 6.81317,0.51184 13.1583,2.80533 8.58656,3.10368 21.68552,3.44826 33.72973,0.88729 2.54826,-0.54184 5.46718,-0.9916 6.48648,-0.99946 l 1.85329,-0.0143 0.11047,2.76505 c 0.11763,2.94413 -0.63071,7.39927 -1.8038,10.73876 -1.09217,3.10912 -2.89633,5.90846 -5.53674,8.59086 -2.68523,2.72792 -5.1407,4.14283 -8.60839,4.96041 -2.78816,0.65737 -7.97684,0.68351 -10.31901,0.052 z m -120.066473,0.84186 c 0,-0.22345 -0.285164,-1.34932 -0.633698,-2.50193 -0.472545,-1.56272 -0.6375,-3.50955 -0.648648,-7.6555 l -0.01495,-5.55985 1.33109,-2.77992 c 1.632701,-3.40983 4.726449,-7.35775 10.212569,-13.03221 2.29808,-2.37698 4.26149,-4.71211 4.36314,-5.18919 0.10165,-0.47707 0.45073,-3.11914 0.77574,-5.87127 0.32502,-2.75212 0.99938,-6.6945 1.4986,-8.76083 1.05027,-4.34723 1.08661,-4.80547 0.40192,-5.06821 -0.76776,-0.29462 -6.10176,1.61648 -8.59211,3.07842 -3.30185,1.93834 -9.273657,8.09629 -11.241702,11.59211 -3.485862,6.19191 -4.865154,11.00391 -5.124096,17.87666 -0.211089,5.60266 0.205699,8.08936 2.300124,13.72336 2.488438,6.6939 5.372022,12.14131 5.372022,10.14836 z M 66.92318,185.69891 c 3.467342,-1.64205 6.961803,-5.24872 12.397283,-12.79537 7.724109,-10.7242 10.711857,-13.84949 16.777793,-17.55021 5.647714,-3.44556 12.975054,-6.67745 16.455604,-7.25813 0.84826,-0.14152 1.82909,-0.57423 2.17963,-0.96158 0.69354,-0.76634 3.49796,-7.43758 3.28347,-7.81078 -0.29756,-0.51773 -5.39503,-0.6955 -8.85667,-0.30887 -10.47003,1.16939 -20.002925,7.15251 -28.03266,17.59411 -2.070764,2.69275 -19.387471,28.9923 -19.735959,29.97376 -0.22353,0.62953 -0.09127,0.68002 1.35445,0.51707 0.881193,-0.0993 2.76087,-0.72932 4.177059,-1.4 z M 79.748253,149.7179 c 7.706731,-7.58577 9.614994,-9.0757 14.946935,-11.67023 7.666022,-3.7303 14.133472,-4.54611 20.677212,-2.60824 1.78686,0.52917 3.39971,0.96212 3.58411,0.96212 0.51443,0 1.46363,-3.20736 1.86478,-6.30116 0.4523,-3.48822 0.49496,-14.34287 0.0574,-14.61327 -0.40504,-0.25033 -1.87907,1.19898 -3.93013,3.86423 -1.43947,1.87053 -3.89841,5.89493 -3.89841,6.3803 0,0.11249 0.89091,0.6404 1.97979,1.17315 1.08889,0.53274 2.29816,1.32425 2.68726,1.75891 l 0.70747,0.7903 -1.2973,-0.18761 c -0.71351,-0.10318 -2.88185,-0.55705 -4.81853,-1.0086 -7.77516,-1.81283 -14.958536,-0.0894 -22.795366,5.46893 -6.681833,4.73918 -12.526222,11.71729 -15.920209,19.00849 -0.967193,2.07779 -1.194231,3.31111 -0.609531,3.31111 0.184319,0 3.228335,-2.84779 6.764479,-6.32843 z m 140.606957,-1.12115 c 9.44613,-0.59853 19.11593,-2.10455 29.20275,-4.54817 1.99511,-0.48334 3.70235,-0.95367 3.79387,-1.04519 0.27129,-0.2713 -0.88469,-12.20938 -1.34862,-13.92747 -0.62242,-2.30503 -2.20591,-3.46263 -7.6256,-5.57466 -6.00503,-2.34015 -10.52323,-3.57321 -16.97962,-4.63392 l -5.09085,-0.83636 -2.33572,-5.72524 c -1.28465,-3.14887 -2.257,-5.85262 -2.16077,-6.00831 0.25918,-0.41936 2.52443,0.6111 5.96757,2.71464 7.12349,4.35202 17.29422,7.64008 27.94735,9.03498 2.51472,0.32927 2.91456,-0.21926 2.91858,-4.00403 0.002,-1.66729 0.10774,-3.90152 0.23548,-4.96495 l 0.23227,-1.93351 1.26766,2.11884 c 1.8705,3.12647 2.59779,3.72205 5.12327,4.19544 2.59453,0.48634 9.80478,0.19755 15.93346,-0.63818 9.46727,-1.29098 12.71208,-2.57365 16.67954,-6.59341 10.09095,-10.223957 9.83914,-25.018964 -0.59394,-34.897148 -3.06266,-2.899773 -5.16126,-4.312874 -9.34773,-6.29434 -13.12672,-6.212918 -30.90312,-5.095181 -46.98243,2.954143 -1.8606,0.931422 -3.45254,1.693494 -3.53763,1.693494 -0.0851,0 -0.048,-0.458687 0.0824,-1.019305 0.83391,-3.585015 3.64904,-7.069777 8.09644,-10.022348 3.44762,-2.28883 5.39487,-4.076835 5.39487,-4.953675 0,-1.724596 -3.96757,-10.663555 -6.47305,-14.583823 -6.15818,-9.635555 -21.70349,-19.872957 -34.40097,-22.654846 -6.4704,-1.417599 -16.97696,-0.986338 -24.91749,1.022784 -9.40168,2.378824 -19.44683,7.694255 -24.96055,13.207984 -4.67234,4.672339 -5.43715,8.272329 -3.59403,16.917333 0.97769,4.58578 1.11132,7.271097 0.37386,7.512596 -0.20983,0.06871 -1.12263,-0.545787 -2.02846,-1.365552 -2.26801,-2.052514 -5.13412,-3.091513 -7.86712,-2.851917 -4.02671,0.353012 -10.05962,3.924169 -15.83812,9.375311 -1.38352,1.305143 -2.72292,2.372987 -2.97644,2.372987 -0.55305,0 -0.24145,-3.146073 0.58834,-5.940274 1.09538,-3.688554 6.09136,-8.86309 11.55681,-11.969848 3.66969,-2.08599 3.84602,-2.328837 2.49089,-3.430661 -1.33762,-1.087585 -7.65722,-3.602504 -10.74904,-4.277639 -3.31746,-0.724406 -12.95372,-0.628012 -17.05019,0.170557 -7.08139,1.380451 -12.496245,3.34195 -15.642758,5.666493 -5.184012,3.829782 -9.139113,8.251257 -11.292869,12.624492 -1.230931,2.499425 -1.234603,2.523286 -1.362565,8.853278 -0.147728,7.307825 0.255871,9.57594 2.397196,13.471604 4.540365,8.260182 12.800828,14.5721 24.103536,18.4178 2.21177,0.752545 4.56796,1.771874 5.23598,2.265175 0.66802,0.493301 3.04473,3.678825 5.28158,7.078955 2.23684,3.40012 4.24049,6.39053 4.45254,6.64536 0.53708,0.64543 4.87596,0.59242 8.20853,-0.10029 3.896,-0.80982 8.14513,-2.27905 11.97415,-4.14033 1.83268,-0.89086 3.38895,-1.44934 3.45838,-1.24106 0.14894,0.44682 -0.36061,2.10104 -1.86264,6.04687 -1.28812,3.38389 -1.31342,3.40093 -9.74643,6.56388 -6.07697,2.27928 -9.21448,3.85131 -9.96125,4.99102 -0.29657,0.45262 -0.71825,2.62925 -0.94284,4.86675 -0.22347,2.22635 -0.57093,5.04868 -0.77213,6.27185 -0.2012,1.22316 -0.36678,2.76136 -0.36796,3.41821 -0.002,1.12403 0.11232,1.22676 1.9438,1.74633 5.67061,1.60871 33.85755,5.71042 51.24324,7.45682 11.89018,1.19437 28.58127,1.39035 42.62548,0.50048 z m -46.33204,-30.8851 c -3.37499,-1.37843 -14.93212,-3.92014 -17.82484,-3.92014 -1.55076,0 -1.72002,-0.0705 -1.25073,-0.5208 0.94932,-0.91093 14.59969,-10.56512 14.73999,-10.42482 0.074,0.074 -0.4631,1.02193 -1.19352,2.10655 -2.31811,3.44219 -1.90685,3.80872 4.94075,4.4033 6.22405,0.54044 29.1669,0.6521 29.6757,0.14443 0.28653,-0.28589 0.0828,-0.79897 -0.71647,-1.80477 -1.12116,-1.4108 -1.20399,-2.2066 -0.18913,-1.81716 0.42916,0.16469 0.54412,-0.14686 0.54412,-1.47468 0,-1.98684 0.5726,-3.70304 1.16914,-3.50419 0.23281,0.0776 1.70572,2.55139 3.27315,5.49731 1.56744,2.94592 3.37861,6.18293 4.02483,7.19336 0.85876,1.34274 1.0496,1.90351 0.70913,2.08375 -1.80498,0.95552 -13.26955,1.8549 -25.85579,2.02835 -6.42162,0.0885 -11.84247,0.0928 -12.04633,0.01 z"/>
    <text style="font-style: normal; font-variant: normal; font-weight: normal; font-stretch: normal; font-size: 90.2011px; font-family: 'Gochi Hand'; text-align: end; letter-spacing: 10px; text-anchor: end; fill: rgb(0, 0, 0); fill-rule: evenodd; stroke: rgb(0, 0, 0); stroke-width: 4; stroke-linecap: round; stroke-linejoin: round; stroke-dasharray: none; stroke-opacity: 1; paint-order: normal; white-space: pre;" x="299.67984" y="464.09024" id="text39" transform="matrix(0.845512, 0, 0, 0.747242, 10.483627, 75.193605)"><tspan id="tspan39" x="309.67984" y="464.09024" dx="25.572462 0.25572464" rotate="0 0 0 0 0" style="font-style:normal;font-variant:normal;font-weight:normal;font-stretch:normal;font-size:90.2011px;font-family:'Gochi Hand';-inkscape-font-specification:'Gochi Hand, Normal';font-variant-ligatures:normal;font-variant-caps:normal;font-variant-numeric:normal;font-variant-east-asian:normal;letter-spacing:10px;stroke-width:4;stroke-dasharray:none;paint-order:normal">ENKA</tspan></text>
    <text style="fill-rule: evenodd; font-family: 'Gochi Hand'; font-size: 69.0387px; letter-spacing: 4.3px; paint-order: fill markers; stroke: rgb(0, 0, 0); stroke-linecap: round; stroke-linejoin: round; stroke-width: 4.4242px; text-anchor: end; white-space: pre;" id="text40" transform="matrix(1.101525, 0, 0, 1.158771, -9.57674, -85.927232)" x="336.917" y="484.043">Cookbook</text>
  </g>
  <g transform="matrix(0.073169, 0, 0, 0.073169, 468.228516, 262.64621)"/>
</svg>