<?xml version="1.0" encoding="UTF-8" standalone="no"?>
<svg
   viewBox="0 0 64 64"
   version="1.1"
   id="svg1271"
   sodipodi:docname="logo.svg"
   inkscape:export-filename="logo.svg"
   inkscape:export-xdpi="96"
   inkscape:export-ydpi="96"
   inkscape:version="1.2.2 (b0a8486541, 2022-12-01)"
   xmlns:inkscape="http://www.inkscape.org/namespaces/inkscape"
   xmlns:sodipodi="http://sodipodi.sourceforge.net/DTD/sodipodi-0.dtd"
   xmlns="http://www.w3.org/2000/svg"
   xmlns:svg="http://www.w3.org/2000/svg">
  <defs
     id="defs1275" />
  <sodipodi:namedview
     id="namedview1273"
     pagecolor="#ffffff"
     bordercolor="#000000"
     borderopacity="0.25"
     inkscape:showpageshadow="2"
     inkscape:pageopacity="0.0"
     inkscape:pagecheckerboard="0"
     inkscape:deskcolor="#d1d1d1"
     showgrid="false"
     inkscape:zoom="13.625"
     inkscape:cx="32.036697"
     inkscape:cy="32"
     inkscape:window-width="1872"
     inkscape:window-height="1046"
     inkscape:window-x="48"
     inkscape:window-y="1050"
     inkscape:window-maximized="1"
     inkscape:current-layer="svg1271" />
  <path
     style="fill:#000000;stroke-width:0.0659061"
     d="m 30.114159,62.969672 c -3.152972,-0.154043 -6.735415,-0.929402 -9.535595,-2.063818 -1.12183,-0.454478 -3.075361,-1.378599 -3.936402,-1.862119 -3.063177,-1.720139 -6.507807,-4.559657 -8.8756903,-7.316515 -0.633,-0.736983 -1.819312,-2.281543 -2.16771,-2.822327 -0.145862,-0.226407 -0.367226,-0.546031 -0.49192,-0.710274 -0.124693,-0.164244 -0.38591,-0.572225 -0.580482,-0.906625 -1.298518,-2.231689 -1.852389,-3.398125 -2.506041,-5.277645 -1.18199502,-3.398729 -1.64943302,-6.113684 -1.65876302,-9.634355 -0.0035,-1.322654 0.02544,-1.9906 0.116499,-2.688 0.339939,-2.6036 0.96041002,-5.152524 1.76044902,-7.232 0.500089,-1.299842 1.301107,-2.996224 1.737666,-3.68 0.179789,-0.2816 0.458336,-0.7424 0.618995,-1.024 0.259519,-0.454881 0.664369,-1.037247 2.068865,-2.976 0.570779,-0.7879 1.217974,-1.553432 1.799918,-2.129029 1.120521,-1.108301 1.7467423,-1.693129 2.0700053,-1.933179 0.500649,-0.371776 0.556478,-0.453496 0.788241,-1.1537923 0.662327,-2.001288 2.358653,-4.10284 4.37035,-5.4143601 1.799527,-1.1731965 3.427864,-1.8049305 5.519202,-2.141245 0.838413,-0.1348277 1.188368,-0.156395 2.537693,-0.156395 h 1.565166 l 0.329773,-0.2371511 c 0.181374,-0.1304331 0.329772,-0.2575802 0.329772,-0.2825492 0,-0.1548667 2.091238,-1.2944415 3.034521,-1.6535964 0.274412,-0.1044823 0.88737,-0.2846333 1.362129,-0.4003356 l 0.863197,-0.2103677 1.764594,5.641e-4 c 1.434408,4.586e-4 1.869923,0.021887 2.327495,0.1145176 2.24462,0.4544011 4.181003,1.4006921 5.900545,2.8835386 l 0.287367,0.2478107 1.103948,0.056177 c 1.497665,0.076212 2.526848,0.2817478 4.191987,0.8371716 0.906696,0.3024373 1.191138,0.4310363 2.205742,0.9972358 1.045997,0.5837181 1.42619,0.8706242 2.515644,1.8983867 0.711821,0.671514 1.079255,1.078941 1.444493,1.601717 0.548688,0.785356 1.119378,1.842423 1.435475,2.6588813 0.28016,0.723633 0.394528,0.875406 1.409153,1.870021 0.907854,0.88995 1.692951,1.779661 2.190146,2.481979 0.161974,0.2288 0.433879,0.5914 0.604231,0.805777 0.170353,0.214378 0.394234,0.516778 0.497513,0.672 0.10328,0.155223 0.340215,0.505463 0.526523,0.778311 0.336918,0.493416 0.448015,0.682415 1.316031,2.238841 1.305568,2.340995 2.224999,4.91136 2.853694,7.977804 0.406594,1.983156 0.473341,2.725657 0.475297,5.287267 0.0021,2.727013 -0.03832,3.123074 -0.57803,5.666845 -0.751712,3.542959 -1.641534,5.798492 -3.571526,9.053155 -0.458273,0.772814 -2.013265,2.978269 -2.597986,3.68474 -1.33917,1.618012 -4.46154,4.54621 -6.315266,5.922537 -0.657783,0.48838 -3.308859,2.19478 -3.69851,2.380593 -0.186639,0.089 -0.716833,0.358543 -1.178209,0.598977 -0.461375,0.240434 -0.850564,0.437153 -0.864865,0.437153 -0.0143,0 -0.553042,0.219533 -1.197205,0.487853 -1.183543,0.492991 -2.428207,0.91764 -3.54662,1.210019 -0.335952,0.08783 -0.885691,0.231289 -1.221643,0.318808 -0.769611,0.200491 -2.752547,0.51288 -4.038205,0.636172 -1.224812,0.117456 -3.966117,0.169004 -5.361651,0.100826 z m -3.291647,-1.816676 c 0.771273,-0.194281 0.954009,-0.343446 2.95116,-2.409002 1.001034,-1.03532 1.697867,-1.848659 1.697867,-1.981738 0,-0.189525 -0.480218,-0.758014 -0.733958,-0.868869 C 30.429523,55.7588 30.24049,55.60245 29.900355,55.200916 l -0.263511,-0.311079 0.222859,-0.232921 c 0.122572,-0.128107 0.296394,-0.345275 0.38627,-0.482594 l 0.163411,-0.249673 -0.184768,-0.14987 c -0.248695,-0.201724 -0.489039,-0.250173 -0.709192,-0.142961 -0.09958,0.0485 -1.161167,1.009776 -2.359073,2.136176 -2.031327,1.910073 -2.19551,2.081364 -2.437866,2.543402 -0.242975,0.463219 -0.260132,0.5339 -0.264103,1.088 -0.0046,0.637757 0.05428,0.807058 0.442487,1.273003 0.229606,0.275582 0.52177,0.417747 1.018437,0.495562 0.513317,0.08042 0.529585,0.08015 0.907206,-0.01497 z m 13.690579,-0.0315 c 0.600993,-0.15715 0.763644,-0.267774 0.980186,-0.66665 0.140128,-0.258119 0.188837,-0.455517 0.212564,-0.861443 0.03804,-0.650727 -0.05689,-1.031951 -0.370865,-1.489409 -0.135158,-0.196924 -1.175377,-1.226069 -2.361133,-2.336 C 35.903288,52.89379 29.205426,46.498119 27.673474,44.977468 26.950128,44.259457 26.035172,43.402707 25.64024,43.073579 l -0.71806,-0.598415 -0.07979,-0.873585 c -0.08411,-0.920836 -0.205663,-1.739565 -0.290306,-1.95533 -0.04002,-0.102018 -0.0833,-0.03599 -0.20738,0.316412 -0.699618,1.986929 -1.811188,3.047629 -4.119045,3.930536 -0.418067,0.159939 -0.769289,0.319597 -0.780494,0.354797 -0.0265,0.08325 0.641337,0.210985 1.370942,0.262222 0.476088,0.03343 0.646028,0.01829 0.972597,-0.08666 0.433859,-0.139434 0.416412,-0.1504 0.484358,0.304439 0.02366,0.1584 0.09001,0.355693 0.147429,0.438429 0.11307,0.162914 0.194776,0.163768 0.7762,0.0081 l 0.310579,-0.08314 0.503849,0.305811 c 0.606671,0.36822 0.577313,0.343931 0.499324,0.413096 -0.03647,0.03235 -0.308065,0.02149 -0.640231,-0.02559 -0.317288,-0.04497 -0.588659,-0.07163 -0.603047,-0.05924 -0.0843,0.07259 0.310274,0.466013 5.996084,5.978521 4.018872,3.896377 5.787083,5.639231 6.747085,6.650326 1.054523,1.110645 2.239149,2.224648 2.621385,2.465107 0.674014,0.424011 1.133117,0.497723 1.881373,0.302066 z M 32.475672,53.126702 C 31.07917,51.798613 29.669647,50.446514 29.343398,50.122038 l -0.593179,-0.589957 0.379465,-0.433818 c 0.208705,-0.238599 0.396739,-0.498719 0.417852,-0.578043 0.02111,-0.07932 0.05993,-0.144226 0.08627,-0.144226 0.09351,0 6.237455,5.936911 6.342857,6.129117 l 0.10721,0.195501 -0.408892,0.356981 c -0.224891,0.19634 -0.46544,0.38552 -0.534554,0.4204 -0.108005,0.05451 -0.482434,-0.275876 -2.664758,-2.351291 z m 4.4247,-1.66668 c 0.117148,-0.129816 1.303644,-1.272828 2.636657,-2.540028 1.333014,-1.2672 2.513266,-2.4192 2.622782,-2.56 0.109517,-0.1408 0.43293,-0.487414 0.718696,-0.770252 0.285766,-0.282839 0.538767,-0.570839 0.562223,-0.64 0.0568,-0.167485 0.544464,-0.450472 0.935728,-0.543 0.271845,-0.06429 0.33989,-0.0593 0.494502,0.03623 0.140989,0.08711 0.262113,0.102259 0.567078,0.07091 0.616077,-0.06333 0.896812,-0.157063 0.896812,-0.299418 0,-0.158116 -0.167674,-0.257981 -0.896805,-0.534129 -0.997955,-0.377962 -1.516495,-0.701683 -2.259103,-1.410342 -0.525328,-0.501312 -0.749571,-0.772879 -0.992363,-1.201789 -0.279783,-0.494254 -0.517001,-1.002339 -0.634459,-1.358909 -0.112544,-0.341656 -0.177266,0.176473 -0.255452,2.045028 -0.07259,1.734743 -0.09224,1.949936 -0.129321,1.415798 -0.0445,-0.641055 -0.147458,-0.911833 -0.2295,-0.603584 -0.02358,0.08858 -0.113963,0.196935 -0.200861,0.240789 -0.0869,0.04386 -0.715996,0.630747 -1.397997,1.304204 -0.682001,0.673456 -2.196709,2.150518 -3.366018,3.282356 -1.16931,1.13184 -2.126017,2.086678 -2.126017,2.121864 0,0.03519 0.45079,0.505936 1.001755,1.046111 0.550966,0.540174 1.088475,1.089414 1.194466,1.220532 l 0.19271,0.238396 0.225745,-0.162368 c 0.12416,-0.0893 0.321593,-0.268581 0.438742,-0.398396 z m 3.935409,-8.240194 c -0.08412,-0.208637 -0.08367,-0.283834 0.0017,-0.283834 0.03733,0 0.06787,0.06624 0.06787,0.1472 0,0.08096 0.03665,0.18176 0.08144,0.224 0.06334,0.05973 0.06297,0.0768 -0.0017,0.0768 -0.04572,0 -0.112908,-0.07387 -0.149312,-0.164166 z m -22.836239,-0.09867 c 0.335952,-0.105732 0.900961,-0.337721 1.255577,-0.515531 1.727944,-0.866418 2.950793,-2.038894 3.807682,-3.650832 0.612087,-1.15143 0.725563,-1.73897 0.442936,-2.29337 -0.122358,-0.240019 -1.185399,-1.616253 -1.841269,-2.383745 -0.566839,-0.66331 -1.705842,-2.051495 -2.153526,-2.624658 -0.159367,-0.204034 -0.418416,-0.513384 -0.575665,-0.687444 -0.15725,-0.17406 -0.569554,-0.662924 -0.916232,-1.086365 -0.346678,-0.423441 -0.851384,-1.035691 -1.12157,-1.360556 -0.270185,-0.324865 -0.636677,-0.773578 -0.814428,-0.997141 -0.762276,-0.958744 -1.753731,-2.079962 -2.069773,-2.340667 -0.374447,-0.308884 -1.109263,-0.614355 -1.800076,-0.748312 -0.927499,-0.179852 -2.6655103,0.184481 -3.5713513,0.74865 -1.168557,0.727791 -2.146177,1.676509 -2.797512,2.714807 -0.914052,1.457095 -1.040141,2.978838 -0.364245,4.395997 0.429504,0.900544 0.744254,1.227136 5.9711473,6.195791 2.25892,2.147317 4.319692,4.130724 4.579494,4.407571 l 0.472366,0.50336 0.442813,-0.04266 c 0.243546,-0.02346 0.717681,-0.129166 1.053632,-0.234899 z m -2.137873,-3.438854 c 0,-0.032 -0.267234,-0.274348 -0.593854,-0.538538 C 14.5725,38.581351 9.2618007,33.595257 8.4607737,32.752788 8.1592057,32.435619 7.9220227,32.154766 7.9336987,32.12867 c 0.01168,-0.0261 0.262259,-0.261922 0.556847,-0.524061 l 0.535617,-0.476615 1.4325853,1.38782 c 0.787921,0.763301 2.238326,2.174501 3.223121,3.136 0.984795,0.961499 2.107178,2.055241 2.494185,2.430538 0.387008,0.375298 0.70365,0.725794 0.70365,0.778881 0,0.05309 -0.175611,0.24502 -0.390247,0.426518 -0.424049,0.358578 -0.627788,0.486625 -0.627788,0.394553 z m 1.255667,-2.036709 c -0.366029,-0.38319 -1.387205,-1.397489 -4.274385,-4.245601 -1.372576,-1.354003 -2.565883,-2.572546 -2.787097,-2.84604 L 9.8625447,30.314962 10.34292,29.873478 c 0.264206,-0.242816 0.514743,-0.441484 0.55675,-0.441484 0.154162,0 1.239156,1.076285 6.25151,6.201336 0.802551,0.820595 1.482213,1.529844 1.510361,1.576108 0.0608,0.09994 -0.253422,0.478556 -0.397174,0.478556 -0.05301,0 -0.192262,0.0864 -0.309443,0.192 -0.11718,0.1056 -0.261932,0.192 -0.32167,0.192 -0.05974,0 -0.291901,-0.19188 -0.515918,-0.426399 z m 1.72346,-1.800327 c -0.740663,-0.721632 -1.802997,-1.838199 -3.522079,-3.701883 -0.317288,-0.343977 -0.760133,-0.801566 -0.984101,-1.016866 -0.579849,-0.557406 -1.598684,-1.665284 -1.798303,-1.95547 -0.0932,-0.135479 -0.232073,-0.27793 -0.308614,-0.316558 -0.07654,-0.03863 -0.17748,-0.128087 -0.224308,-0.198795 -0.07707,-0.116373 -0.03179,-0.180109 0.47761,-0.67224 l 0.562751,-0.543678 0.306087,0.312075 c 0.596897,0.608572 1.866479,2.003715 2.577254,2.832141 0.166105,0.1936 0.410218,0.469087 0.542474,0.612194 0.132256,0.143106 0.536643,0.589506 0.898638,0.992 0.361995,0.402493 1.181845,1.307806 1.82189,2.011806 0.640044,0.704 1.180308,1.318286 1.200586,1.36508 0.0357,0.08239 -0.578085,0.727951 -0.803321,0.844914 -0.08494,0.04411 -0.24926,-0.08019 -0.746564,-0.56472 z m 30.76149,7.409247 c 0.177738,-0.04655 0.358064,-0.185921 0.641311,-0.495644 0.762714,-0.834003 1.182481,-1.240052 6.10231,-5.902877 2.7298,-2.5872 5.017761,-4.782626 5.084356,-4.878725 l 0.121082,-0.174725 -0.343276,-0.401275 c -0.577828,-0.675454 -6.803019,-6.482163 -7.103811,-6.626264 -0.666756,-0.319424 -1.251714,-0.234132 -1.984383,0.289344 -0.389323,0.278163 -0.693693,0.614545 -1.628512,1.799798 -0.398701,0.50551 -0.508004,0.638433 -1.64536,2.00092 -1.290247,1.545641 -2.153682,2.594498 -2.829812,3.437511 -0.179353,0.22362 -0.762041,0.923291 -1.294862,1.554824 -0.532821,0.631533 -1.097831,1.316312 -1.255576,1.521733 -0.157746,0.205421 -0.415946,0.522742 -0.573776,0.705159 -0.359516,0.415518 -0.448451,0.72162 -0.41016,1.4117 0.02635,0.474946 0.06452,0.608993 0.30065,1.056 1.11207,2.105194 2.366543,3.284013 4.538837,4.265118 0.996373,0.450007 1.710233,0.586897 2.280982,0.437403 z m -0.04848,-3.953208 -0.47991,-0.429313 2.991063,-2.92042 c 1.645084,-1.606232 3.428293,-3.343496 3.962686,-3.860587 l 0.971623,-0.940166 0.589364,0.550789 0.589364,0.550789 -4.004112,3.741798 c -2.202262,2.057988 -4.034725,3.740587 -4.07214,3.73911 -0.03742,-0.0015 -0.283988,-0.195878 -0.547938,-0.432 z m -1.748633,-1.60709 c -0.248755,-0.242978 -0.452283,-0.454933 -0.452283,-0.471013 0,-0.02973 0.409917,-0.45398 1.398003,-1.446887 0.302302,-0.303778 1.230741,-1.257923 2.063197,-2.120323 2.390153,-2.476127 4.140748,-4.224 4.23058,-4.224 0.09218,0 1.063321,0.899902 1.063321,0.985319 0,0.02987 -0.525739,0.576393 -1.16831,1.214495 -0.64257,0.638102 -1.383386,1.376186 -1.646257,1.640186 -2.732277,2.744013 -4.892854,4.864 -4.957129,4.864 -0.04336,0 -0.282366,-0.1988 -0.531122,-0.441777 z m -1.211584,-1.276742 c -0.063,-0.02282 -0.284422,-0.179941 -0.49205,-0.349169 -0.423925,-0.345524 -0.46665,-0.494653 -0.225666,-0.787681 0.245529,-0.298555 1.937505,-2.19361 2.393368,-2.680631 0.230636,-0.2464 0.620591,-0.685837 0.866568,-0.976526 0.446139,-0.527238 0.901324,-1.025916 1.61347,-1.767633 0.206921,-0.215513 0.503844,-0.550241 0.65983,-0.743841 0.155985,-0.1936 0.554293,-0.622714 0.885129,-0.953588 0.713655,-0.713734 0.703303,-0.712904 1.40101,-0.112365 l 0.47169,0.405999 -0.335952,0.36864 c -0.801723,0.879732 -1.934015,2.077591 -2.000494,2.116335 -0.03978,0.02318 -0.1966,0.190838 -0.348491,0.372566 -0.255422,0.305597 -1.166243,1.291812 -2.669928,2.890934 -0.335951,0.357274 -0.855149,0.915485 -1.153773,1.240468 -0.924183,1.005765 -0.941082,1.021263 -1.064711,0.976492 z m -3.698065,-5.209481 c 0.02019,-0.0792 0.05852,-2.2104 0.08519,-4.736 l 0.04849,-4.592 0.549956,-5.4e-5 c 2.033055,-1.92e-4 3.89383,-0.433323 5.368655,-1.249641 0.657274,-0.363802 1.807319,-1.235024 2.13646,-1.618485 0.111328,-0.129702 0.312268,-0.363624 0.446534,-0.519828 0.931098,-1.08324 1.658757,-2.804816 1.868199,-4.419992 0.09348,-0.720886 0.04021,-2.254913 -0.101281,-2.916845 C 52.765129,8.6636017 51.040123,6.6818277 48.211797,5.3121831 46.767448,4.6127432 45.002442,4.137599 43.403225,4.0177028 42.473688,3.9480137 41.342299,3.9748241 40.837461,4.0785037 40.605434,4.1261555 40.581013,4.1105105 39.785491,3.404564 39.337556,3.0070657 38.787817,2.5764554 38.563849,2.4476521 37.506176,1.8393863 37.227719,1.7007224 36.594045,1.4667439 35.330133,1.0000549 34.371706,0.82558 33.06646,0.8245722 32.260806,0.8239514 31.086384,0.9271832 30.453504,1.054254 29.118369,1.3223251 27.33943,2.1850623 26.400459,3.0198713 L 26.046275,3.3347652 25.586031,3.2300544 c -1.35024,-0.3071953 -3.47438,-0.306472 -4.80386,0.00164 -0.592235,0.137251 -1.654092,0.4700802 -1.968201,0.6169143 -0.149311,0.069798 -0.69905,0.3953289 -1.221642,0.7234027 -1.506811,0.9459503 -2.478356,1.9214533 -3.342371,3.3559863 -0.566397,0.940397 -0.708523,1.262613 -0.973926,2.2080003 -0.511875,1.823349 -0.376148,4.423594 0.327254,6.269452 0.223782,0.587246 0.778949,1.629558 1.126273,2.114548 0.658493,0.919496 1.189333,1.429427 2.041598,1.961183 1.177041,0.734395 1.857756,1.017515 2.959046,1.230715 0.63222,0.122393 1.829466,0.231978 2.535184,0.232048 l 0.533049,5.4e-5 -0.04859,-0.528 c -0.02672,-0.2904 -0.05473,-0.534611 -0.06223,-0.542689 -0.0075,-0.0081 -0.365526,-0.04378 -0.795607,-0.07933 -1.367932,-0.113083 -2.68805,-0.406647 -3.441523,-0.765316 -0.601162,-0.286167 -1.525263,-0.934467 -1.967582,-1.380352 -0.495668,-0.499664 -1.145752,-1.409102 -1.475142,-2.063655 -0.431415,-0.857294 -0.774565,-2.409936 -0.774565,-3.504655 0,-1.254017 0.346412,-2.672097 0.914711,-3.7444883 0.572179,-1.079712 0.927263,-1.550303 1.763494,-2.337156 0.776971,-0.731092 1.475346,-1.214704 2.486942,-1.722166 1.765999,-0.885903 3.838663,-1.1153783 6.032856,-0.6679287 0.354616,0.072315 0.723264,0.1457497 0.819218,0.1631887 0.144189,0.026206 0.271111,-0.051969 0.731464,-0.4505284 0.78914,-0.6832121 1.854691,-1.2296848 2.911975,-1.4934201 0.570412,-0.1422872 0.806242,-0.1654502 1.713422,-0.1682914 0.802227,-0.00251 1.155382,0.023433 1.487566,0.1092892 0.53352,0.1378934 1.574433,0.5906168 2.018437,0.8778777 0.514908,0.3331334 1.522083,1.2847582 1.938755,1.831824 0.411329,0.540051 0.91439,1.625084 1.135816,2.449799 0.147148,0.548058 0.433071,2.1115153 0.393053,2.1492513 -0.01462,0.01379 -0.08117,-0.1977503 -0.147875,-0.4700893 -0.395696,-1.615479 -1.581672,-3.298031 -2.90011,-4.114411 -1.048112,-0.6489932 -1.894449,-0.8909126 -3.12059,-0.8919985 -1.284017,-0.00114 -2.00591,0.216603 -3.272342,0.9870155 -0.525418,0.319629 -1.197637,0.957663 -1.197637,1.136733 0,0.03563 0.111127,0.264193 0.246949,0.507928 0.135822,0.243735 0.23453,0.454866 0.219351,0.46918 -0.01518,0.01431 -0.332458,-0.08816 -0.705065,-0.227713 -0.986715,-0.369563 -1.503677,-0.491625 -2.447692,-0.57794 -1.80189,-0.164753 -3.477328,0.23586 -5.026659,1.201922 -0.452051,0.281871 -1.550811,1.298875 -1.932111,1.788349 -0.98093,1.2592193 -1.409775,2.8488783 -1.21909,4.5189783 0.147173,1.289015 0.777455,2.559662 1.751516,3.531055 0.846125,0.843808 3.086867,1.959733 3.935082,1.959733 h 0.155413 v 5.696 5.696 h 0.190814 c 0.104948,0 0.663878,-0.126877 1.242068,-0.281948 1.550905,-0.415956 3.757028,-0.776375 5.749656,-0.939335 1.235889,-0.101072 5.305205,-0.04186 6.527,0.09497 1.841191,0.2062 4.178176,0.633555 5.42952,0.992872 0.798111,0.229173 0.791729,0.228766 0.836416,0.05344 z m -3.686919,-4.537702 c -0.212232,-0.08204 -2.299595,-0.335434 -3.859453,-0.468516 -1.911524,-0.163084 -4.224377,-0.283987 -6.324125,-0.330588 l -1.964973,-0.04361 v -0.629792 c 0,-0.527529 0.01717,-0.629792 0.105724,-0.629792 0.05815,0 0.722416,-0.07817 1.476151,-0.173704 1.267362,-0.16064 1.543968,-0.173575 3.677972,-0.171998 1.269151,9.34e-4 2.819109,0.02349 3.444352,0.05011 l 1.136806,0.04841 v -1.636409 -1.636409 l -1.374347,6.4e-4 c -1.428568,6.4e-4 -2.92685,0.05401 -6.422478,0.22881 -1.726588,0.08634 -2.071968,0.08908 -2.123828,0.01684 -0.07766,-0.108169 -0.01232,-0.64066 0.08561,-0.697737 0.08524,-0.04968 2.336318,-0.539018 4.134046,-0.89866 1.274459,-0.25496 4.70139,-0.991839 6.995757,-1.504269 0.693455,-0.154878 1.311912,-0.281596 1.374348,-0.281596 0.10485,0 0.11352,0.292539 0.11352,3.830168 0,2.106592 -0.01984,4.093792 -0.0441,4.416 -0.04749,0.630873 -0.06622,0.653133 -0.430986,0.51213 z m 3.755479,-6.122413 c 0.01986,-0.129737 0.06133,-0.34968 0.09216,-0.488761 l 0.05605,-0.252876 0.542339,-0.07427 c 1.289336,-0.17656 2.616339,-0.638077 3.545486,-1.233079 0.21683,-0.138852 0.659441,-0.515256 0.98358,-0.836454 1.177124,-1.166441 1.672031,-2.307649 1.689065,-3.89483 0.0236,-2.198409 -1.52746,-4.1571893 -3.934933,-4.9693093 -0.566643,-0.191147 -0.626065,-0.198022 -1.70692,-0.197493 -0.981838,5.12e-4 -1.182205,0.01893 -1.625933,0.149732 -1.055091,0.311015 -2.234765,0.957728 -2.984093,1.6359203 l -0.57182,0.517535 0.192596,-0.32 c 0.349408,-0.580545 0.503072,-0.7607883 1.2738,-1.4941253 1.387553,-1.320237 2.848448,-2.04913 4.530185,-2.260274 0.670883,-0.08423 1.569202,-0.01853 2.341174,0.171232 1.017378,0.250083 2.382177,1.087031 3.052879,1.872145 0.457453,0.535487 0.946793,1.5203113 1.199977,2.4150223 0.196185,0.693287 0.217545,0.858278 0.219568,1.696 0.0026,1.062947 -0.08592,1.619727 -0.403373,2.538139 -0.764956,2.21306 -2.284036,3.863835 -4.271001,4.641272 -0.928413,0.363258 -1.868076,0.52189 -3.486656,0.588609 l -0.770239,0.03175 z"
     id="path1277" />
</svg>
