<?xml version="1.0" encoding="UTF-8"?>
<!DOCTYPE svg PUBLIC "-//W3C//DTD SVG 1.1//EN" "http://www.w3.org/Graphics/SVG/1.1/DTD/svg11.dtd">
<svg xmlns="http://www.w3.org/2000/svg" version="1.1" width="48px" height="48px" style="shape-rendering:geometricPrecision; text-rendering:geometricPrecision; image-rendering:optimizeQuality; fill-rule:evenodd; clip-rule:evenodd" xmlns:xlink="http://www.w3.org/1999/xlink">
<g><path style="opacity:0.808" fill="#0b0b0b" d="M 20.5,3.5 C 23.9705,2.87483 26.8038,3.87483 29,6.5C 34.4269,14.3484 39.0936,22.6817 43,31.5C 44.9887,37.2916 43.1554,41.125 37.5,43C 29.5643,44.53 21.5643,44.8633 13.5,44C 10.2873,43.3942 7.28728,42.2275 4.5,40.5C 3.34524,37.5541 3.17858,34.5541 4,31.5C 8.25136,21.3154 13.7514,11.9821 20.5,3.5 Z"/></g>
<g><path style="opacity:1" fill="#f5f5f5" d="M 22.5,5.5 C 26.7794,7.68431 29.9461,11.0176 32,15.5C 35.8312,21.6627 38.9979,28.1627 41.5,35C 41.3552,35.772 41.0219,36.4387 40.5,37C 36.9855,38.5617 33.3189,39.395 29.5,39.5C 29.3341,34.4889 29.5007,29.4889 30,24.5C 31.9591,22.0566 31.2924,20.3899 28,19.5C 27.5133,16.2016 26.3466,13.2016 24.5,10.5C 24.1667,10.8333 23.8333,11.1667 23.5,11.5C 26.9404,20.8571 28.2737,30.5237 27.5,40.5C 20.9897,40.9302 14.6564,40.0969 8.5,38C 6.81978,37.6532 5.81978,36.6532 5.5,35C 9.76813,24.2889 15.4348,14.4556 22.5,5.5 Z"/></g>
<g><path style="opacity:1" fill="#131313" d="M 18.5,16.5 C 21.8606,17.2032 22.1939,18.5365 19.5,20.5C 17.3576,19.5629 17.0243,18.2296 18.5,16.5 Z"/></g>
<g><path style="opacity:1" fill="#3b3b3b" d="M 12.5,27.5 C 14.337,27.6395 14.6704,28.3061 13.5,29.5C 12.7025,29.0431 12.3691,28.3764 12.5,27.5 Z"/></g>
<g><path style="opacity:1" fill="#242424" d="M 21.5,29.5 C 22.5,29.5 23.5,29.5 24.5,29.5C 24.5,30.5 24.5,31.5 24.5,32.5C 23.5,32.5 22.5,32.5 21.5,32.5C 21.5,31.5 21.5,30.5 21.5,29.5 Z"/></g>
<g><path style="opacity:1" fill="#131313" d="M 12.5,31.5 C 15.8606,32.2032 16.1939,33.5365 13.5,35.5C 11.3576,34.5629 11.0243,33.2296 12.5,31.5 Z"/></g>
<g><path style="opacity:1" fill="#3b3b3b" d="M 34.5,32.5 C 36.337,32.6395 36.6704,33.3061 35.5,34.5C 34.7025,34.0431 34.3691,33.3764 34.5,32.5 Z"/></g>
</svg>
